<!--?xml version="1.0" encoding="utf-8"?-->
<!-- Generator: Adobe Illustrator 18.1.1, SVG Export Plug-In . SVG Version: 6.00 Build 0)  -->

<svg version="1.1" id="_x32_" xmlns="http://www.w3.org/2000/svg" xmlns:xlink="http://www.w3.org/1999/xlink" x="0px" y="0px" viewBox="0 0 512 512" style="width: 256px; height: 256px; opacity: 1;" xml:space="preserve">
<style type="text/css">
	.st0{fill:#4B4B4B;}
</style>
<g>
	<path class="st0" d="M503.412,130.602c-1.276,8.467-6.544,15.189-14.34,17.814c-3.7,1.309-8.386,1.866-12.668,1.972
		c-0.331,0.008-0.638-0.016-0.961-0.025c1.64-2.294,3.102-4.75,4.346-7.352c2.384-5.042,4.032-10.746,3.733-16.966
		c-0.186-6.172-3.207-12.951-8.322-16.983c-2.586-2.068-5.066-3.442-8.265-4.54c-3.191-1.05-6.778-1.268-10.107-0.55
		c-6.762,1.406-11.974,6.14-14.858,11.553c-2.949,5.47-3.684,11.796-2.706,17.556c0.937,5.615,3.345,11.165,7.199,15.568
		c1.785,2.084,3.862,3.845,6.083,5.364c-4.128,2.586-8.612,4.638-13.306,5.947c-1.236,0.339-2.496,0.549-3.748,0.792
		c-3.264-5.397-7.158-10.753-11.779-16.037c-52.498-59.988-188.907-55.156-275.992-11.092
		c-18.606,9.412-36.049,23.171-52.402,38.344c-16.99-7.352-42.261-16.741-57.564-15.205c-9.896,0.985-11.108,4.936-8.644,11.101
		c1.858,4.637,11.392,28.81,24.916,46.277C33.948,235.743,15.956,255.19,0,264.642l18.332,42.771l71.694,20.683l60.48,4.823
		l11.416,35.008c1.923,5.889,2.133,12.208,0.622,18.21l-3.312,13.121l-0.016,12.628h37.794l9.574-28.649
		c1.519-4.557,2.294-9.324,2.294-14.123v-33.407l129.097-8.943l10.292,19.212c6.706,12.53,7.376,27.42,1.81,40.501l-4.072,9.582
		l-3.854,15.827h35.879c0,0,29.271-46.092,34.845-58.639c5.574-12.547,6.981-37.617,9.768-47.368
		c15.06-34.765,39.491-84.556,19.301-132.409c0.388-0.105,0.783-0.162,1.171-0.275c8.838-2.707,17.039-7.4,23.931-13.63
		c3.223,0.534,6.455,0.727,9.622,0.606c5.316-0.307,10.325-0.937,15.689-2.924c5.203-1.988,10.059-5.413,13.508-9.978
		c3.475-4.565,5.381-10.034,6.133-15.342L503.412,130.602z M461.174,147.228c-6.148-3.191-10.285-8.968-11.165-15.834
		c-0.525-3.733,0.097-7.466,1.818-10.455c1.688-2.989,4.484-5.138,7.264-5.591c1.389-0.242,2.779-0.114,4.144,0.363
		c1.334,0.493,3.151,1.495,4.258,2.513c2.416,2.1,3.611,4.896,3.716,8.338C471.346,133.526,466.999,141.395,461.174,147.228z" style="fill: rgb(75, 75, 75);"></path>
</g>
</svg>
